<svg width="202" height="108" viewBox="0 0 202 108" fill="none" xmlns="http://www.w3.org/2000/svg">
<path d="M9.47999 28C9.18666 28 8.93333 27.8933 8.71999 27.68C8.50666 27.4667 8.39999 27.2133 8.39999 26.92V8.6H1.75999C1.46666 8.6 1.21333 8.49333 0.999993 8.28C0.786659 8.06667 0.679993 7.81333 0.679993 7.52V1.08C0.679993 0.786668 0.786659 0.533334 0.999993 0.320001C1.21333 0.106667 1.46666 0 1.75999 0H25.2C25.4933 0 25.7467 0.106667 25.96 0.320001C26.1733 0.533334 26.28 0.786668 26.28 1.08V7.52C26.28 7.81333 26.1733 8.06667 25.96 8.28C25.7467 8.49333 25.4933 8.6 25.2 8.6H18.56V26.92C18.56 27.2133 18.4533 27.4667 18.24 27.68C18.0267 27.8933 17.7733 28 17.48 28H9.47999Z" fill="#444444"/>
<path d="M30.2331 28C29.9398 28 29.6865 27.9067 29.4731 27.72C29.2598 27.5067 29.1531 27.24 29.1531 26.92V1.08C29.1531 0.786668 29.2598 0.533334 29.4731 0.320001C29.6865 0.106667 29.9398 0 30.2331 0H38.0731C38.3665 0 38.6198 0.106667 38.8331 0.320001C39.0465 0.533334 39.1531 0.786668 39.1531 1.08V9.48H45.6331V1.08C45.6331 0.786668 45.7398 0.533334 45.9531 0.320001C46.1665 0.106667 46.4198 0 46.7131 0H54.5531C54.8465 0 55.0998 0.106667 55.3131 0.320001C55.5265 0.533334 55.6331 0.786668 55.6331 1.08V26.92C55.6331 27.2133 55.5265 27.4667 55.3131 27.68C55.0998 27.8933 54.8465 28 54.5531 28H46.7131C46.4198 28 46.1665 27.8933 45.9531 27.68C45.7398 27.4667 45.6331 27.2133 45.6331 26.92V18.28H39.1531V26.92C39.1531 27.2133 39.0465 27.4667 38.8331 27.68C38.6198 27.8933 38.3665 28 38.0731 28H30.2331Z" fill="#444444"/>
<path d="M61.1316 28C60.8382 28 60.5849 27.8933 60.3716 27.68C60.1582 27.4667 60.0516 27.2133 60.0516 26.92V1.08C60.0516 0.786668 60.1582 0.533334 60.3716 0.320001C60.5849 0.106667 60.8382 0 61.1316 0H81.6516C81.9449 0 82.1982 0.106667 82.4116 0.320001C82.6249 0.533334 82.7316 0.786668 82.7316 1.08V6.72C82.7316 7.01333 82.6249 7.26667 82.4116 7.48C82.1982 7.69334 81.9449 7.8 81.6516 7.8H69.6516V10.32H80.7716C81.0649 10.32 81.3182 10.4267 81.5316 10.64C81.7449 10.8533 81.8516 11.1067 81.8516 11.4V16.6C81.8516 16.8933 81.7449 17.1467 81.5316 17.36C81.3182 17.5733 81.0649 17.68 80.7716 17.68H69.6516V20.2H81.9716C82.2649 20.2 82.5182 20.3067 82.7316 20.52C82.9449 20.7333 83.0516 20.9867 83.0516 21.28V26.92C83.0516 27.2133 82.9449 27.4667 82.7316 27.68C82.5182 27.8933 82.2649 28 81.9716 28H61.1316Z" fill="#444444"/>
<path d="M3.44399 68C3.13599 68 2.86999 67.888 2.64599 67.664C2.42199 67.44 2.30999 67.174 2.30999 66.866V39.734C2.30999 39.426 2.42199 39.16 2.64599 38.936C2.86999 38.712 3.13599 38.6 3.44399 38.6H16.17C18.718 38.6 20.93 38.978 22.806 39.734C24.71 40.462 26.18 41.596 27.216 43.136C28.28 44.648 28.812 46.566 28.812 48.89C28.812 51.214 28.28 53.118 27.216 54.602C26.18 56.058 24.71 57.136 22.806 57.836C20.93 58.508 18.718 58.844 16.17 58.844H13.23V66.866C13.23 67.174 13.118 67.44 12.894 67.664C12.67 67.888 12.404 68 12.096 68H3.44399ZM13.02 51.074H15.96C16.408 51.074 16.842 50.906 17.262 50.57C17.682 50.206 17.892 49.618 17.892 48.806C17.892 48.274 17.752 47.742 17.472 47.21C17.22 46.678 16.716 46.412 15.96 46.412H13.02V51.074Z" fill="#444444"/>
<path d="M33.0573 68C32.7493 68 32.4833 67.888 32.2593 67.664C32.0353 67.44 31.9233 67.174 31.9233 66.866V39.734C31.9233 39.426 32.0353 39.16 32.2593 38.936C32.4833 38.712 32.7493 38.6 33.0573 38.6H54.6033C54.9113 38.6 55.1773 38.712 55.4013 38.936C55.6253 39.16 55.7373 39.426 55.7373 39.734V45.656C55.7373 45.964 55.6253 46.23 55.4013 46.454C55.1773 46.678 54.9113 46.79 54.6033 46.79H42.0033V49.436H53.6793C53.9873 49.436 54.2533 49.548 54.4773 49.772C54.7013 49.996 54.8133 50.262 54.8133 50.57V56.03C54.8133 56.338 54.7013 56.604 54.4773 56.828C54.2533 57.052 53.9873 57.164 53.6793 57.164H42.0033V59.81H54.9393C55.2473 59.81 55.5133 59.922 55.7373 60.146C55.9613 60.37 56.0733 60.636 56.0733 60.944V66.866C56.0733 67.174 55.9613 67.44 55.7373 67.664C55.5133 67.888 55.2473 68 54.9393 68H33.0573Z" fill="#444444"/>
<path d="M61.0709 68C60.7629 68 60.4969 67.888 60.2729 67.664C60.0489 67.44 59.9369 67.174 59.9369 66.866V39.734C59.9369 39.426 60.0489 39.16 60.2729 38.936C60.4969 38.712 60.7629 38.6 61.0709 38.6H73.5029C77.5349 38.6 80.685 39.51 82.9529 41.33C85.2209 43.15 86.3549 45.642 86.3549 48.806C86.3549 50.682 85.9209 52.32 85.0529 53.72C84.2129 55.092 83.1349 56.198 81.8189 57.038L86.9849 66.614C87.0689 66.782 87.1109 66.936 87.1109 67.076C87.1109 67.328 87.0129 67.552 86.8169 67.748C86.6489 67.916 86.4389 68 86.1869 68H77.577C77.017 68 76.5969 67.86 76.3169 67.58C76.0369 67.3 75.8549 67.062 75.7709 66.866L72.1589 58.844H70.4369V66.866C70.4369 67.174 70.3249 67.44 70.1009 67.664C69.8769 67.888 69.6109 68 69.3029 68H61.0709ZM70.4369 50.864H73.5029C74.1469 50.864 74.6229 50.654 74.9309 50.234C75.2669 49.786 75.4349 49.282 75.4349 48.722C75.4349 48.162 75.2809 47.644 74.9729 47.168C74.6929 46.664 74.2029 46.412 73.5029 46.412H70.4369V50.864Z" fill="#444444"/>
<path d="M91.3815 68C91.0735 68 90.8075 67.888 90.5835 67.664C90.3595 67.44 90.2475 67.174 90.2475 66.866V39.734C90.2475 39.426 90.3595 39.16 90.5835 38.936C90.8075 38.712 91.0735 38.6 91.3815 38.6H112.549C112.857 38.6 113.123 38.712 113.347 38.936C113.571 39.16 113.683 39.426 113.683 39.734V46.118C113.683 46.426 113.571 46.692 113.347 46.916C113.123 47.14 112.857 47.252 112.549 47.252H100.537V50.36H111.709C112.017 50.36 112.283 50.472 112.507 50.696C112.731 50.92 112.843 51.186 112.843 51.494V57.836C112.843 58.144 112.731 58.41 112.507 58.634C112.283 58.858 112.017 58.97 111.709 58.97H100.537V66.866C100.537 67.174 100.425 67.44 100.201 67.664C99.9775 67.888 99.7115 68 99.4035 68H91.3815Z" fill="#444444"/>
<path d="M118.534 68C118.226 68 117.96 67.888 117.736 67.664C117.512 67.44 117.4 67.174 117.4 66.866V39.734C117.4 39.426 117.512 39.16 117.736 38.936C117.96 38.712 118.226 38.6 118.534 38.6H140.08C140.388 38.6 140.654 38.712 140.878 38.936C141.102 39.16 141.214 39.426 141.214 39.734V45.656C141.214 45.964 141.102 46.23 140.878 46.454C140.654 46.678 140.388 46.79 140.08 46.79H127.48V49.436H139.156C139.464 49.436 139.73 49.548 139.954 49.772C140.178 49.996 140.29 50.262 140.29 50.57V56.03C140.29 56.338 140.178 56.604 139.954 56.828C139.73 57.052 139.464 57.164 139.156 57.164H127.48V59.81H140.416C140.724 59.81 140.99 59.922 141.214 60.146C141.438 60.37 141.55 60.636 141.55 60.944V66.866C141.55 67.174 141.438 67.44 141.214 67.664C140.99 67.888 140.724 68 140.416 68H118.534Z" fill="#444444"/>
<path d="M158.522 68.42C155.834 68.42 153.454 68.028 151.382 67.244C149.31 66.46 147.658 65.228 146.426 63.548C145.222 61.868 144.564 59.698 144.452 57.038C144.424 55.89 144.41 54.658 144.41 53.342C144.41 52.026 144.424 50.766 144.452 49.562C144.564 46.958 145.236 44.816 146.468 43.136C147.728 41.456 149.394 40.21 151.466 39.398C153.566 38.586 155.918 38.18 158.522 38.18C160.314 38.18 162.036 38.39 163.688 38.81C165.368 39.202 166.88 39.832 168.224 40.7C169.568 41.568 170.632 42.688 171.416 44.06C172.228 45.404 172.648 47.028 172.676 48.932C172.676 49.184 172.578 49.408 172.382 49.604C172.214 49.772 172.004 49.856 171.752 49.856H163.184C162.736 49.856 162.4 49.772 162.176 49.604C161.98 49.408 161.798 49.086 161.63 48.638C161.322 47.742 160.902 47.14 160.37 46.832C159.838 46.524 159.208 46.37 158.48 46.37C157.556 46.37 156.814 46.622 156.254 47.126C155.722 47.602 155.428 48.484 155.372 49.772C155.288 52.068 155.288 54.42 155.372 56.828C155.428 58.116 155.722 59.012 156.254 59.516C156.814 59.992 157.556 60.23 158.48 60.23C159.208 60.23 159.838 60.062 160.37 59.726C160.93 59.39 161.35 58.802 161.63 57.962C161.77 57.486 161.952 57.164 162.176 56.996C162.4 56.828 162.736 56.744 163.184 56.744H171.752C172.004 56.744 172.214 56.842 172.382 57.038C172.578 57.206 172.676 57.416 172.676 57.668C172.648 59.572 172.228 61.21 171.416 62.582C170.632 63.926 169.568 65.032 168.224 65.9C166.88 66.768 165.368 67.412 163.688 67.832C162.036 68.224 160.314 68.42 158.522 68.42Z" fill="#444444"/>
<path d="M183.655 68C183.347 68 183.081 67.888 182.857 67.664C182.633 67.44 182.521 67.174 182.521 66.866V47.63H175.549C175.241 47.63 174.975 47.518 174.751 47.294C174.527 47.07 174.415 46.804 174.415 46.496V39.734C174.415 39.426 174.527 39.16 174.751 38.936C174.975 38.712 175.241 38.6 175.549 38.6H200.161C200.469 38.6 200.735 38.712 200.959 38.936C201.183 39.16 201.295 39.426 201.295 39.734V46.496C201.295 46.804 201.183 47.07 200.959 47.294C200.735 47.518 200.469 47.63 200.161 47.63H193.189V66.866C193.189 67.174 193.077 67.44 192.853 67.664C192.629 67.888 192.363 68 192.055 68H183.655Z" fill="#444444"/>
<path d="M3.44399 107C3.13599 107 2.86999 106.888 2.64599 106.664C2.42199 106.44 2.30999 106.174 2.30999 105.866V78.734C2.30999 78.426 2.42199 78.16 2.64599 77.936C2.86999 77.712 3.13599 77.6 3.44399 77.6H10.08C10.64 77.6 11.06 77.754 11.34 78.062C11.62 78.37 11.802 78.594 11.886 78.734L17.976 88.814L24.066 78.734C24.15 78.594 24.332 78.37 24.612 78.062C24.892 77.754 25.312 77.6 25.872 77.6H32.508C32.816 77.6 33.082 77.712 33.306 77.936C33.53 78.16 33.642 78.426 33.642 78.734V105.866C33.642 106.174 33.53 106.44 33.306 106.664C33.082 106.888 32.816 107 32.508 107H24.906C24.598 107 24.332 106.888 24.108 106.664C23.884 106.44 23.772 106.174 23.772 105.866V94.358L21 98.894C20.86 99.118 20.664 99.356 20.412 99.608C20.188 99.832 19.866 99.944 19.446 99.944H16.506C16.086 99.944 15.75 99.832 15.498 99.608C15.274 99.356 15.092 99.118 14.952 98.894L12.18 94.358V105.866C12.18 106.174 12.068 106.44 11.844 106.664C11.62 106.888 11.354 107 11.046 107H3.44399Z" fill="white"/>
<path d="M39.4147 107C39.1067 107 38.8407 106.888 38.6167 106.664C38.3927 106.44 38.2807 106.174 38.2807 105.866V78.734C38.2807 78.426 38.3927 78.16 38.6167 77.936C38.8407 77.712 39.1067 77.6 39.4147 77.6H60.9607C61.2687 77.6 61.5347 77.712 61.7587 77.936C61.9827 78.16 62.0947 78.426 62.0947 78.734V84.656C62.0947 84.964 61.9827 85.23 61.7587 85.454C61.5347 85.678 61.2687 85.79 60.9607 85.79H48.3607V88.436H60.0367C60.3447 88.436 60.6107 88.548 60.8347 88.772C61.0587 88.996 61.1707 89.262 61.1707 89.57V95.03C61.1707 95.338 61.0587 95.604 60.8347 95.828C60.6107 96.052 60.3447 96.164 60.0367 96.164H48.3607V98.81H61.2967C61.6047 98.81 61.8707 98.922 62.0947 99.146C62.3187 99.37 62.4307 99.636 62.4307 99.944V105.866C62.4307 106.174 62.3187 106.44 62.0947 106.664C61.8707 106.888 61.6047 107 61.2967 107H39.4147Z" fill="#444444"/>
<path d="M67.4284 107C67.1204 107 66.8544 106.888 66.6304 106.664C66.4064 106.44 66.2944 106.174 66.2944 105.866V78.734C66.2944 78.426 66.4064 78.16 66.6304 77.936C66.8544 77.712 67.1204 77.6 67.4284 77.6H74.0644C74.6244 77.6 75.0304 77.726 75.2824 77.978C75.5344 78.23 75.7024 78.426 75.7864 78.566L82.8844 90.2V78.734C82.8844 78.426 82.9964 78.16 83.2204 77.936C83.4444 77.712 83.7104 77.6 84.0184 77.6H91.6204C91.9284 77.6 92.1944 77.712 92.4184 77.936C92.6424 78.16 92.7544 78.426 92.7544 78.734V105.866C92.7544 106.174 92.6424 106.44 92.4184 106.664C92.1944 106.888 91.9284 107 91.6204 107H84.9844C84.4244 107 84.0184 106.874 83.7664 106.622C83.5144 106.342 83.3464 106.146 83.2624 106.034L76.1644 95.324V105.866C76.1644 106.174 76.0524 106.44 75.8284 106.664C75.6044 106.888 75.3384 107 75.0304 107H67.4284Z" fill="#444444"/>
<path d="M105.028 107C104.72 107 104.454 106.888 104.23 106.664C104.006 106.44 103.894 106.174 103.894 105.866V86.63H96.9222C96.6142 86.63 96.3482 86.518 96.1242 86.294C95.9002 86.07 95.7882 85.804 95.7882 85.496V78.734C95.7882 78.426 95.9002 78.16 96.1242 77.936C96.3482 77.712 96.6142 77.6 96.9222 77.6H121.534C121.842 77.6 122.108 77.712 122.332 77.936C122.556 78.16 122.668 78.426 122.668 78.734V85.496C122.668 85.804 122.556 86.07 122.332 86.294C122.108 86.518 121.842 86.63 121.534 86.63H114.562V105.866C114.562 106.174 114.45 106.44 114.226 106.664C114.002 106.888 113.736 107 113.428 107H105.028Z" fill="#444444"/>
<path d="M138.67 107.42C135.926 107.42 133.518 107 131.446 106.16C129.402 105.32 127.778 104.06 126.574 102.38C125.398 100.672 124.754 98.572 124.642 96.08C124.614 94.932 124.6 93.714 124.6 92.426C124.6 91.138 124.614 89.892 124.642 88.688C124.754 86.224 125.398 84.138 126.574 82.43C127.75 80.722 129.374 79.42 131.446 78.524C133.518 77.628 135.926 77.18 138.67 77.18C141.414 77.18 143.822 77.628 145.894 78.524C147.966 79.42 149.59 80.722 150.766 82.43C151.97 84.138 152.614 86.224 152.698 88.688C152.754 89.892 152.782 91.138 152.782 92.426C152.782 93.714 152.754 94.932 152.698 96.08C152.586 98.572 151.928 100.672 150.724 102.38C149.548 104.06 147.924 105.32 145.852 106.16C143.808 107 141.414 107.42 138.67 107.42ZM138.67 99.23C139.594 99.23 140.336 98.964 140.896 98.432C141.456 97.872 141.75 97.004 141.778 95.828C141.834 94.624 141.862 93.434 141.862 92.258C141.862 91.082 141.834 89.92 141.778 88.772C141.75 87.988 141.596 87.344 141.316 86.84C141.064 86.336 140.714 85.972 140.266 85.748C139.818 85.496 139.286 85.37 138.67 85.37C138.082 85.37 137.55 85.496 137.074 85.748C136.626 85.972 136.262 86.336 135.982 86.84C135.73 87.344 135.59 87.988 135.562 88.772C135.534 89.92 135.52 91.082 135.52 92.258C135.52 93.434 135.534 94.624 135.562 95.828C135.618 97.004 135.912 97.872 136.444 98.432C137.004 98.964 137.746 99.23 138.67 99.23Z" fill="#444444"/>
<path d="M157.704 107C157.396 107 157.13 106.888 156.906 106.664C156.682 106.44 156.57 106.174 156.57 105.866V78.734C156.57 78.426 156.682 78.16 156.906 77.936C157.13 77.712 157.396 77.6 157.704 77.6H170.136C174.168 77.6 177.318 78.51 179.586 80.33C181.854 82.15 182.988 84.642 182.988 87.806C182.988 89.682 182.554 91.32 181.686 92.72C180.846 94.092 179.768 95.198 178.452 96.038L183.618 105.614C183.702 105.782 183.744 105.936 183.744 106.076C183.744 106.328 183.646 106.552 183.45 106.748C183.282 106.916 183.072 107 182.82 107H174.21C173.65 107 173.23 106.86 172.95 106.58C172.67 106.3 172.488 106.062 172.404 105.866L168.792 97.844H167.07V105.866C167.07 106.174 166.958 106.44 166.734 106.664C166.51 106.888 166.244 107 165.936 107H157.704ZM167.07 89.864H170.136C170.78 89.864 171.256 89.654 171.564 89.234C171.9 88.786 172.068 88.282 172.068 87.722C172.068 87.162 171.914 86.644 171.606 86.168C171.326 85.664 170.836 85.412 170.136 85.412H167.07V89.864Z" fill="#444444"/>
</svg>
